==================================================
MOVIE INFROMATION
==================================================

STAR TREK ( 2009 )
------------------

A chronicle of the early days of James T. Kirk and his fellow USS Enterprise crew members. 

IMDB Rating: 8.1
----------------

Genre: Action | Adventure | Sci-fi
----------------------------------

Runtime: 127 mins
-----------------

-------------------
RELEASE INFORMATION
-------------------

Theatrical Cut
..............

Resolution: 1280x528
Video Bitrate: 4661 Kbps 8 Bits
Framerate: 23.976 fps

Audio Bitrate: 640 Kbps 16 Bits
Size: 4.69 GB
Source: Orginal Star Trek Blu-Ray 1080p, 39 GB

Language: English
Subtitles: English
Files: 1x MKV, 1x SRT

Encoder ( Video ): x264 r1913
Encoder ( Audio ): Direct Muxing ( No encoding done )

================================================================================================================================================================

FILE INFORMATION
----------------

General
Format                                   : Matroska
Format version                           : Version 2
File size                                : 4.69 GiB
Duration                                 : 2h 6mn
Overall bit rate                         : 5 292 Kbps
Encoded date                             : UTC 2011-11-24 07:01:03
Writing application                      : mkvmerge v5.0.1 (\\\\\\\\\\\\\\\\\\\\\\\\\\\\\\\'Es ist Sommer\\\\\\\\\\\\\\\\\\\\\\\\\\\\\\\') built on Oct  9 2011 11:55:43
Writing library                          : libebml v1.2.2 + libmatroska v1.3.0

Video
ID                                       : 1
Format                                   : AVC
Format/Info                              : Advanced Video Codec
Format profile                           : High@L4.0
Format settings, CABAC                   : Yes
Format settings, ReFrames                : 8 frames
Codec ID                                 : V_MPEG4/ISO/AVC
Duration                                 : 2h 6mn
Bit rate                                 : 4 661 Kbps
Width                                    : 1 280 pixels
Height                                   : 528 pixels
Display aspect ratio                     : 2.40:1
Frame rate                               : 23.976 fps
Color space                              : YUV
Chroma subsampling                       : 4:2:0
Bit depth                                : 8 bits
Scan type                                : Progressive
Bits/(Pixel*Frame)                       : 0.288
Stream size                              : 4.03 GiB (86%)
Title                                    : Video Core
Writing library                          : x264 core 114 r1913 5fd3dce
Encoding settings                        : cabac=1 / ref=8 / deblock=1:-1:-1 / analyse=0x3:0x113 / me=umh / subme=10 / psy=1 / psy_rd=1.00:0.20 / mixed_ref=1 / me_range=32 / chroma_me=1 / trellis=2 / 8x8dct=1 / cqm=0 / deadzone=21,11 / fast_pskip=0 / chroma_qp_offset=-3 / threads=12 / sliced_threads=0 / nr=0 / decimate=1 / interlaced=0 / constrained_intra=0 / bframes=6 / b_pyramid=2 / b_adapt=2 / b_bias=0 / direct=3 / weightb=1 / open_gop=0 / weightp=2 / keyint=240 / keyint_min=23 / scenecut=40 / intra_refresh=0 / rc_lookahead=60 / rc=2pass / mbtree=1 / bitrate=4661 / ratetol=4.0 / qcomp=0.60 / qpmin=10 / qpmax=69 / qpstep=4 / cplxblur=20.0 / qblur=0.5 / ip_ratio=1.40 / aq=2:1.00
Default                                  : Yes
Forced                                   : No
Color primaries                          : BT.709-5, BT.1361, IEC 61966-2-4, SMPTE RP177
Transfer characteristics                 : BT.709-5, BT.1361
Matrix coefficients                      : BT.709-5, BT.1361, IEC 61966-2-4 709, SMPTE RP177

Audio
ID                                       : 2
Format                                   : AC-3
Format/Info                              : Audio Coding 3
Mode extension                           : CM (complete main)
Codec ID                                 : A_AC3
Duration                                 : 2h 6mn
Bit rate mode                            : Constant
Bit rate                                 : 640 Kbps
Channel(s)                               : 6 channels
Channel positions                        : Front: L C R, Side: L R, LFE
Sampling rate                            : 48.0 KHz
Bit depth                                : 16 bits
Compression mode                         : Lossy
Stream size                              : 581 MiB (12%)
Title                                    : Audio Core
Language                                 : English
Default                                  : Yes
Forced                                   : No

================================================================================================================================================================

